<?xml version="1.0" standalone="no"?>
<!DOCTYPE svg PUBLIC "-//W3C//DTD SVG 20010904//EN"
 "http://www.w3.org/TR/2001/REC-SVG-20010904/DTD/svg10.dtd">
<svg version="1.0" xmlns="http://www.w3.org/2000/svg"
 width="512.000000pt" height="512.000000pt" viewBox="0 0 512.000000 512.000000"
 preserveAspectRatio="xMidYMid meet">

<g transform="translate(0.000000,512.000000) scale(0.100000,-0.100000)"
fill="#000000" stroke="none">
<path d="M2475 4711 c-61 -16 -105 -41 -151 -83 -59 -55 -88 -100 -110 -174
-31 -107 -13 -187 78 -349 17 -29 24 -61 26 -116 l4 -76 -48 -8 c-120 -18
-330 -104 -459 -188 -54 -36 -73 -43 -83 -34 -20 16 -83 112 -126 192 -45 83
-67 109 -121 141 -166 97 -374 6 -416 -182 -15 -68 -1 -141 41 -207 32 -51 71
-81 187 -145 43 -23 95 -57 115 -75 l38 -32 -36 -55 c-85 -132 -155 -297 -189
-449 l-17 -73 -78 4 c-70 4 -85 9 -148 47 -118 71 -211 86 -321 52 -213 -66
-313 -301 -213 -503 37 -76 88 -125 172 -165 47 -23 68 -27 145 -28 95 0 109
5 250 82 38 21 66 29 122 31 l72 4 6 -28 c44 -198 105 -344 207 -495 l37 -57
-72 -50 c-40 -27 -100 -63 -134 -81 -129 -64 -183 -143 -183 -266 0 -161 113
-274 276 -275 118 0 202 55 260 173 32 66 126 207 137 207 5 0 27 -13 50 -28
140 -95 303 -163 501 -207 l29 -6 -5 -79 c-4 -70 -9 -85 -47 -148 -71 -118
-86 -211 -52 -321 50 -161 189 -258 359 -249 138 7 247 79 308 204 25 51 28
70 29 149 0 95 -5 109 -82 250 -21 38 -29 66 -31 122 l-4 72 28 6 c170 38 369
120 492 204 l60 40 50 -72 c27 -40 64 -100 81 -135 60 -120 137 -173 259 -180
63 -4 79 -1 126 22 171 84 213 309 83 444 -18 18 -68 52 -111 75 -43 22 -106
60 -138 84 l-60 44 18 27 c102 153 177 333 219 526 l6 29 77 -5 c69 -5 87 -11
180 -59 102 -53 104 -54 190 -54 74 0 96 4 148 28 77 36 145 104 181 182 24
51 28 73 28 145 0 72 -4 94 -29 147 -71 155 -249 242 -409 200 -32 -9 -90 -35
-130 -59 -66 -40 -77 -43 -154 -47 l-82 -3 -7 28 c-41 186 -103 336 -200 486
l-43 68 62 44 c34 24 95 61 135 82 100 53 136 85 167 148 31 63 36 136 15 211
-21 75 -105 158 -184 180 -140 40 -269 -23 -342 -168 -29 -55 -118 -192 -132
-201 -5 -3 -28 9 -53 25 -117 79 -308 160 -458 194 l-73 17 4 77 c5 68 11 87
59 179 53 102 54 104 54 190 0 75 -4 96 -29 149 -34 74 -113 154 -183 184 -52
23 -178 34 -228 20z m140 -162 c55 -15 120 -82 135 -138 16 -59 6 -104 -40
-181 -56 -95 -70 -153 -70 -297 0 -117 1 -125 24 -148 15 -15 41 -26 72 -30
194 -27 400 -111 555 -226 87 -65 117 -65 174 -5 57 59 129 161 179 253 45 85
77 114 124 115 69 2 122 -46 122 -112 0 -54 -26 -87 -93 -121 -152 -77 -327
-221 -327 -269 0 -14 8 -37 18 -51 110 -163 138 -209 167 -272 43 -94 80 -213
95 -309 19 -117 29 -123 188 -122 143 0 192 12 288 70 33 20 77 39 100 43 158
30 282 -137 209 -280 -21 -40 -80 -87 -126 -99 -57 -16 -102 -6 -179 40 -95
56 -153 70 -297 70 -154 0 -164 -7 -183 -121 -31 -186 -103 -361 -209 -509
-70 -97 -76 -130 -36 -179 39 -46 166 -137 260 -187 102 -54 125 -81 125 -140
0 -59 -38 -103 -96 -111 -65 -8 -95 14 -147 109 -55 101 -131 208 -186 266
-57 58 -78 56 -181 -18 -151 -109 -342 -189 -526 -220 -113 -18 -117 -25 -112
-203 l3 -145 55 -107 c66 -128 71 -176 23 -252 -92 -150 -324 -102 -356 73 -8
45 7 99 46 162 56 93 67 139 67 287 0 159 -5 167 -112 184 -179 29 -377 112
-527 220 -47 34 -95 61 -108 61 -51 0 -193 -172 -274 -332 -30 -60 -66 -88
-114 -88 -60 0 -115 55 -115 115 0 48 28 84 88 114 80 41 227 141 285 194 52
49 60 82 29 128 -110 163 -138 210 -167 273 -40 85 -78 211 -95 312 -18 113
-25 117 -203 112 l-145 -3 -107 -55 c-90 -47 -114 -55 -156 -53 -61 1 -129 39
-159 87 -88 143 42 333 204 296 21 -4 63 -24 94 -43 93 -56 139 -67 287 -67
164 0 166 1 189 139 30 175 102 348 204 489 64 90 75 114 63 145 -18 47 -166
163 -303 236 -87 48 -108 73 -108 132 0 56 50 109 104 109 60 0 93 -24 127
-93 45 -88 118 -194 181 -260 73 -77 95 -77 205 2 155 111 316 180 503 215
126 24 130 30 130 186 0 147 -11 191 -69 288 -22 37 -43 83 -46 103 -15 82 47
185 130 214 49 17 69 18 120 4z"/>
<path d="M2440 3619 c-121 -15 -228 -46 -345 -103 -131 -63 -205 -117 -309
-226 -122 -128 -202 -266 -250 -434 -139 -479 71 -987 510 -1232 158 -88 316
-127 514 -127 163 0 237 13 380 67 303 113 553 384 644 698 75 258 51 519 -68
764 -66 134 -100 174 -148 174 -42 0 -81 -37 -81 -78 0 -15 18 -59 41 -97 195
-322 168 -732 -68 -1029 -61 -77 -160 -163 -243 -211 -39 -22 -50 -25 -63 -14
-41 34 -304 367 -304 385 0 3 17 40 38 82 36 73 37 80 37 181 0 98 -2 111 -32
173 -72 153 -199 240 -372 256 l-75 7 -37 88 c-21 48 -61 151 -89 229 -41 112
-49 143 -38 150 7 5 49 27 93 48 100 48 211 77 326 86 110 8 139 26 139 83 0
75 -56 98 -200 80z"/>
<path d="M2459 3352 c-163 -85 -163 -312 0 -394 36 -19 70 -28 101 -28 64 0
147 43 183 95 52 75 52 185 -1 260 -36 52 -118 95 -182 95 -33 0 -64 -9 -101
-28z"/>
<path d="M2982 2661 c-108 -37 -178 -142 -170 -255 9 -139 103 -234 241 -244
237 -18 366 270 198 438 -76 76 -167 96 -269 61z"/>
</g>
</svg>
